<svg width="24" height="24" viewBox="0 0 24 24" fill="none" xmlns="http://www.w3.org/2000/svg">
<rect x="0.5" y="0.5" width="23" height="23" fill="#ECF1F0" fillOpacity="0.6" stroke="#050A09"/>
<mask id="path-2-inside-1_1629_11102" fill="white">
<path fillRule="evenodd" clip-rule="evenodd" d="M12.875 11.125V5H11.125V11.125H5V12.875H11.125V19H12.875V12.875H19V11.125H12.875Z"/>
</mask>
<path fillRule="evenodd" clip-rule="evenodd" d="M12.875 11.125V5H11.125V11.125H5V12.875H11.125V19H12.875V12.875H19V11.125H12.875Z" fill="#050A09"/>
<path d="M12.875 5H13.875V4H12.875V5ZM12.875 11.125H11.875V12.125H12.875V11.125ZM11.125 5V4H10.125V5H11.125ZM11.125 11.125V12.125H12.125V11.125H11.125ZM5 11.125V10.125H4V11.125H5ZM5 12.875H4V13.875H5V12.875ZM11.125 12.875H12.125V11.875H11.125V12.875ZM11.125 19H10.125V20H11.125V19ZM12.875 19V20H13.875V19H12.875ZM12.875 12.875V11.875H11.875V12.875H12.875ZM19 12.875V13.875H20V12.875H19ZM19 11.125H20V10.125H19V11.125ZM11.875 5V11.125H13.875V5H11.875ZM11.125 6H12.875V4H11.125V6ZM12.125 11.125V5H10.125V11.125H12.125ZM5 12.125H11.125V10.125H5V12.125ZM6 12.875V11.125H4V12.875H6ZM11.125 11.875H5V13.875H11.125V11.875ZM12.125 19V12.875H10.125V19H12.125ZM12.875 18H11.125V20H12.875V18ZM11.875 12.875V19H13.875V12.875H11.875ZM19 11.875H12.875V13.875H19V11.875ZM18 11.125V12.875H20V11.125H18ZM12.875 12.125H19V10.125H12.875V12.125Z" fill="#050A09" mask="url(#path-2-inside-1_1629_11102)"/>
</svg>
