<svg width="24" height="24" viewBox="0 0 24 24" fill="none" xmlns="http://www.w3.org/2000/svg">
<path d="M12.6236 12.0393C12.6236 15.0764 12.6236 18.1143 12.6236 21.1513C12.6236 21.2692 12.6443 21.3918 12.619 21.5034C12.5728 21.7077 12.499 21.9049 12.4367 22.1053C12.2345 22.0251 11.9945 21.9905 11.8353 21.857C10.0119 20.331 8.20396 18.7853 6.37904 17.2609C6.21832 17.1265 5.97146 17.0417 5.76305 17.0377C4.62334 17.0165 3.48133 16.9937 2.3424 17.0362C1.07119 17.0841 0.645913 16.6181 0.335993 15.4324C0.0729842 14.4242 0.0345327 13.3398 0.00607852 12.2861C-0.0208376 11.3093 0.0429921 10.3208 0.170651 9.35195C0.245247 8.78618 0.477495 8.22592 0.724354 7.70494C0.966599 7.19418 1.4434 6.9938 2.00325 6.99773C3.25908 7.00559 4.51491 7.01109 5.76997 6.98987C5.97838 6.98673 6.22447 6.89715 6.3852 6.76278C8.20011 5.24621 10.0012 3.71314 11.8061 2.18479C11.8845 2.118 11.9614 2.04649 12.0476 1.99148C12.3513 1.79661 12.5728 1.90112 12.6144 2.26022C12.629 2.38988 12.6236 2.52189 12.6236 2.65233C12.6236 5.78133 12.6236 8.91034 12.6236 12.0393Z" fill="#AAB4B1"/>
<path d="M21.3117 22.1053C20.9316 21.7269 20.57 21.3674 20.2105 21.0094C21.6093 19.1803 22.0769 16.9831 22.3434 14.7162C22.6664 11.9699 22.5239 9.24702 21.8193 6.58294C21.6547 5.96176 21.4474 5.34685 21.1905 4.76876C20.9343 4.19302 20.59 3.66741 20.2587 3.07286C20.548 2.72742 20.8772 2.33419 21.2443 1.89474C21.4612 2.18614 21.6809 2.44542 21.8648 2.73368C22.8331 4.25568 23.3434 5.99309 23.6382 7.8151C24.2236 11.427 24.1299 15.006 23.1265 18.5216C22.6836 20.0733 21.9708 21.4324 21.3117 22.1037V22.1053Z" fill="#AAB4B1"/>
<path d="M17.6842 5.53726C18.1168 5.18411 18.5569 4.82386 19.05 4.42105C19.3028 4.75055 19.643 5.12972 19.9084 5.55145C20.7046 6.8127 21.0977 8.20481 21.2968 9.645C21.6471 12.1762 21.511 14.6727 20.582 17.0959C20.225 18.0276 19.737 18.8931 18.9928 19.5789C18.5519 19.2014 18.1227 18.8348 17.6842 18.4596C19.2826 16.533 19.6379 14.3022 19.6396 12.0106C19.6413 9.71674 19.2944 7.48353 17.6842 5.53805V5.53726Z" fill="#AAB4B1"/>
<path d="M16.1871 17.0518C15.8304 16.6482 15.4721 16.2438 15.1579 15.8886C16.4125 13.2747 16.4065 10.7286 15.1601 8.10823C15.4691 7.75788 15.8274 7.35182 16.1849 6.94739C18.1814 8.64263 18.1859 15.2864 16.1871 17.0527V17.0518Z" fill="#AAB4B1"/>
</svg>
