<svg width="24" height="24" viewBox="0 0 24 24" fill="none" xmlns="http://www.w3.org/2000/svg">
<g opacity="0.5">
<path d="M12.6236 12.1446C12.6236 15.1817 12.6236 18.2195 12.6236 21.2566C12.6236 21.3744 12.6443 21.497 12.619 21.6086C12.5728 21.8129 12.499 22.0102 12.4367 22.2105C12.2345 22.1304 11.9945 22.0958 11.8353 21.9622C10.0119 20.4362 8.20396 18.8906 6.37904 17.3661C6.21832 17.2318 5.97146 17.1469 5.76305 17.143C4.62334 17.1218 3.48133 17.099 2.3424 17.1414C1.07119 17.1893 0.645913 16.7234 0.335993 15.5376C0.0729842 14.5295 0.0345327 13.4451 0.00607852 12.3913C-0.0208376 11.4146 0.0429921 10.4261 0.170651 9.45721C0.245247 8.89144 0.477495 8.33117 0.724354 7.8102C0.966599 7.29943 1.4434 7.09906 2.00325 7.10299C3.25908 7.11085 4.51491 7.11635 5.76997 7.09513C5.97838 7.09199 6.22447 7.00241 6.3852 6.86804C8.20011 5.35147 10.0012 3.8184 11.8061 2.29004C11.8845 2.22325 11.9614 2.15174 12.0476 2.09674C12.3513 1.90186 12.5728 2.00637 12.6144 2.36548C12.629 2.49513 12.6236 2.62715 12.6236 2.75759C12.6236 5.88659 12.6236 9.01559 12.6236 12.1446Z" fill="#ECF1F0"/>
<path d="M21.3117 22.2105C20.9316 21.8322 20.57 21.4726 20.2105 21.1147C21.6093 19.2856 22.0769 17.0884 22.3434 14.8214C22.6664 12.0751 22.5239 9.35227 21.8193 6.68819C21.6547 6.06702 21.4474 5.45211 21.1905 4.87401C20.9343 4.29827 20.59 3.77266 20.2587 3.17812C20.548 2.83267 20.8772 2.43944 21.2443 2C21.4612 2.2914 21.6809 2.55068 21.8648 2.83894C22.8331 4.36094 23.3434 6.09835 23.6382 7.92036C24.2236 11.5323 24.1299 15.1113 23.1265 18.6268C22.6836 20.1786 21.9708 21.5377 21.3117 22.209V22.2105Z" fill="#ECF1F0"/>
<path d="M17.6842 5.64253C18.1168 5.28938 18.5569 4.92913 19.05 4.52632C19.3028 4.85582 19.643 5.23499 19.9084 5.65672C20.7046 6.91797 21.0977 8.31008 21.2968 9.75027C21.6471 12.2815 21.511 14.7779 20.582 17.2011C20.225 18.1329 19.737 18.9984 18.9928 19.6842C18.5519 19.3066 18.1227 18.9401 17.6842 18.5649C19.2826 16.6383 19.6379 14.4075 19.6396 12.1159C19.6413 9.82201 19.2944 7.5888 17.6842 5.64332V5.64253Z" fill="#ECF1F0"/>
<path d="M16.1871 17.1571C15.8304 16.7535 15.4721 16.349 15.1579 15.9938C16.4125 13.3799 16.4065 10.8338 15.1601 8.21347C15.4691 7.86311 15.8274 7.45706 16.1849 7.05263C18.1814 8.74787 18.1859 15.3916 16.1871 17.1579V17.1571Z" fill="#ECF1F0"/>
</g>
</svg>
