<svg width="357" height="48" viewBox="0 0 357 48" fill="none" xmlns="http://www.w3.org/2000/svg">
<path d="M8.38225 39.3926C8.49168 35.7899 4.96268 34.2495 3.1845 33.9296C0.229985 33.9296 -0.143888 31.9117 0.0384891 30.9028V21.3056C0.0384891 19.1795 1.95345 18.3527 2.91093 18.205H15.9176C18.0514 18.205 18.5849 16.2856 18.5849 15.3259V5.13812C18.5849 2.71669 20.4543 2.11133 21.3889 2.11133H37.4868C38.7999 2.11133 39.5465 3.00475 39.5465 4.7916C39.5465 5.68502 39.5465 7.30162 41.6666 7.30162C44.4451 7.30162 44.6038 9.25872 44.6038 10.5383V19.1019C44.6038 21.7596 43.2619 22.413 42.236 22.413H30.0624C27.1626 22.413 26.3464 25.612 26.3008 27.2116V42.6408C26.3008 45.2394 23.1092 45.8891 21.5134 45.8891H12.4173C9.20295 45.8891 8.24547 43.8958 8.38225 39.3926Z" fill="#D8E1DF"/>
<path fillRule="evenodd" clip-rule="evenodd" d="M56.0984 13.6868C56.1384 7.37155 61.6041 2.26367 68.3406 2.26367C75.0339 2.26367 80.4726 7.30624 80.5813 13.5654C85.7256 14.6878 89.5773 19.2689 89.5773 24.7498C89.5773 29.7652 86.3519 34.0273 81.8622 35.5749C81.1167 41.2919 75.459 45.7366 68.5902 45.7366C61.7213 45.7366 56.0636 41.2918 55.3182 35.5747C50.8288 34.0268 47.6038 29.7649 47.6038 24.7498C47.6038 19.4485 51.2073 14.9889 56.0984 13.6868ZM62.2883 30.6239C61.8198 30.0215 61.2844 29.2185 61.686 28.0138C61.7707 27.59 61.9271 27.1663 62.0945 26.7123C62.3237 26.0908 62.5738 25.4128 62.6899 24.6007C62.6899 23.5939 62.4094 22.587 61.9656 20.9942L61.9656 20.9941L61.9654 20.9933C61.8782 20.6806 61.7848 20.3453 61.686 19.9829C61.4852 18.979 61.8868 18.1759 62.2883 17.7744C62.6899 17.3728 63.4929 16.9713 64.4968 17.1721C64.8001 17.2327 65.3008 17.4304 65.8636 17.6525C66.9949 18.0991 68.3775 18.6449 68.9138 18.3767C69.3823 18.3098 70.4798 18.0956 71.1223 17.7744C71.9254 17.3728 73.5316 16.9713 74.1339 17.1721C74.6158 17.3327 75.0039 17.6405 75.1378 17.7744C75.6063 18.3767 76.1416 19.1798 75.7401 20.3844C75.6538 20.8158 75.4563 21.2843 75.2432 21.7898C74.9603 22.4607 74.65 23.1969 74.5355 23.9984C74.5355 24.7429 74.7655 25.4107 75.0835 26.3336L75.0835 26.3336L75.0835 26.3337C75.28 26.904 75.51 27.5718 75.7401 28.4154C75.9409 29.4192 75.5393 30.2223 75.1378 30.6239C74.7362 31.0254 73.9331 31.427 72.9293 31.2262C72.6607 31.1725 72.2201 31.0288 71.7115 30.8629C70.4909 30.4648 68.8784 29.9389 68.3115 30.2223C68.2072 30.2372 68.0816 30.2495 67.9423 30.2631H67.9423C67.4562 30.3105 66.8032 30.3742 66.3038 30.6239C65.5007 31.0254 63.8945 31.427 63.2922 31.2262C62.8103 31.0656 62.4222 30.7577 62.2883 30.6239Z" fill="#D8E1DF"/>
<path d="M92.5801 11.7089V35.8004C92.663 38.7504 94.6698 44.6504 102.034 44.6504C109.397 44.6504 111.57 40.3893 111.736 38.2587V24.0005C111.819 23.3449 112.233 22.0338 113.229 22.0338C114.224 22.0338 114.804 23.3449 114.97 24.0005V38.2587C115.965 40.4712 119.149 44.6504 124.921 44.6504C130.693 44.6504 133.297 40.2254 133.877 38.0129V19.5755C133.628 11.9547 125.419 11.7089 123.428 11.7089C123.18 7.2839 118.95 3.35059 113.726 3.35059C109.547 3.35059 107.838 4.66169 107.507 5.31724C107.341 4.66169 106.014 3.35059 102.034 3.35059C94.2718 3.35059 92.4971 8.92278 92.5801 11.7089Z" fill="#D8E1DF"/>
<path fillRule="evenodd" clip-rule="evenodd" d="M145.372 13.6868C145.412 7.37155 150.877 2.26367 157.614 2.26367C164.307 2.26367 169.746 7.30624 169.855 13.5654C174.999 14.6878 178.851 19.2689 178.851 24.7498C178.851 29.7652 175.625 34.0273 171.136 35.5749C170.39 41.2919 164.732 45.7366 157.864 45.7366C150.995 45.7366 145.337 41.2918 144.592 35.5747C140.102 34.0268 136.877 29.7649 136.877 24.7498C136.877 19.4485 140.481 14.9889 145.372 13.6868ZM151.562 30.6239C151.093 30.0215 150.558 29.2185 150.959 28.0138C151.044 27.59 151.2 27.1663 151.368 26.7123C151.597 26.0908 151.847 25.4128 151.963 24.6007C151.963 23.5939 151.683 22.587 151.239 20.9942L151.239 20.9941L151.239 20.9933C151.152 20.6806 151.058 20.3453 150.959 19.9829C150.759 18.979 151.16 18.1759 151.562 17.7744C151.963 17.3728 152.766 16.9713 153.77 17.1721C154.074 17.2327 154.574 17.4304 155.137 17.6525C156.268 18.0991 157.651 18.6449 158.187 18.3767C158.656 18.3098 159.753 18.0956 160.396 17.7744C161.199 17.3728 162.805 16.9713 163.407 17.1721C163.889 17.3327 164.277 17.6405 164.411 17.7744C164.88 18.3767 165.415 19.1798 165.013 20.3844C164.927 20.8158 164.73 21.2843 164.517 21.7898C164.234 22.4607 163.923 23.1969 163.809 23.9984C163.809 24.7429 164.039 25.4107 164.357 26.3336L164.357 26.3336L164.357 26.3337C164.553 26.904 164.783 27.5718 165.013 28.4154C165.214 29.4192 164.813 30.2223 164.411 30.6239C164.01 31.0254 163.207 31.427 162.203 31.2262C161.934 31.1725 161.494 31.0288 160.985 30.8629C159.764 30.4648 158.152 29.9389 157.585 30.2223C157.481 30.2372 157.355 30.2495 157.216 30.2631H157.216C156.73 30.3105 156.077 30.3742 155.577 30.6239C154.774 31.0254 153.168 31.427 152.566 31.2262C152.084 31.0656 151.696 30.7577 151.562 30.6239Z" fill="#D8E1DF"/>
<path fillRule="evenodd" clip-rule="evenodd" d="M185.058 8.34934H188.754C190.874 8.34934 192.341 7.92079 192.341 5.45665C192.341 4.59956 192.885 2.93894 194.189 2.93894H213.866C214.989 2.90322 217.345 3.52819 217.345 5.45665C217.345 6.42088 217.725 8.34934 220.878 8.34934C223.4 8.34934 223.994 10.6706 223.976 11.8313V36.312C223.976 37.2227 223.541 39.0976 220.878 39.0976C219.7 38.9904 217.345 39.4404 217.345 42.0974C217.345 44.7544 215.026 45.1686 213.866 45.0437H194.189C193.573 45.0972 192.341 44.7008 192.341 42.6866C192.341 41.2403 190.058 41.2403 188.754 41.2403H185.71C183.21 41.2403 181.851 39.9547 181.851 38.1869V11.8313C181.851 11.1885 181.851 8.34934 185.058 8.34934ZM200.849 12.8498H210.479C213.651 12.8498 216.542 13.6162 216.542 17.3928V30.1957C216.542 33.0867 214.188 34.9402 210.479 35.0764C206.769 35.2127 202.513 35.1332 200.849 35.0764V13.6162V12.8498Z" fill="#D8E1DF"/>
<path d="M226.979 11.7089V35.8004C227.062 38.7504 229.069 44.6504 236.433 44.6504C243.797 44.6504 244.971 40.3893 245.137 38.2587V24.0005C245.22 23.3449 245.386 22.0338 247.628 22.0338C249.366 22.0338 249.947 23.3449 250.113 24.0005V38.2587C251.108 40.4712 253.549 44.6504 259.32 44.6504C265.092 44.6504 267.696 40.2254 268.276 38.0129V19.5755C268.027 11.9547 259.818 11.7089 257.828 11.7089C257.579 7.2839 253.35 3.35059 248.125 3.35059C243.946 3.35059 242.237 4.66169 241.906 5.31724C241.74 4.66169 240.413 3.35059 236.433 3.35059C228.671 3.35059 226.896 8.92278 226.979 11.7089Z" fill="#D8E1DF"/>
<path d="M279.551 2.9375C272.931 2.9375 271.276 8.46337 271.276 10.8316V27.4092C271.276 32.9351 276.542 35.0402 279.3 35.0402C282.058 35.0402 282.811 36.8821 282.811 39.2503C282.811 46.8287 287.702 45.1504 290.584 44.2499C292.59 43.623 292.841 43.375 296.351 44.2499C303.874 46.6 303.408 43.1974 303.623 39.2503C303.838 35.3033 305.378 35.0402 306.883 35.0402C309.892 35.0402 313.402 31.3563 313.402 27.4092V10.8316C313.402 8.98964 312.349 2.9375 305.127 2.9375C297.906 2.9375 297.103 8.98964 297.103 10.8316V23.9884C297.103 25.1287 295.599 27.4092 292.339 27.4092C289.079 27.4092 287.826 25.0168 287.575 23.9884V10.8316C287.575 8.98964 286.171 2.9375 279.551 2.9375Z" fill="#D8E1DF"/>
<path fillRule="evenodd" clip-rule="evenodd" d="M318.785 10.7669C322.391 10.7669 323.324 10.0087 323.324 7.0499V6.14125C323.285 5.06747 323.771 2.91992 326.028 2.91992H348.108C350.326 2.91992 351.307 3.74592 351.307 5.4254V6.43361C351.307 7.4629 352.012 7.88506 353.894 7.88506C355.955 7.88506 356.368 9.11489 356.363 11.1064V30.1778C356.363 31.4504 356.363 33.1207 353.933 33.1207H339.236C337.825 33.1207 337.355 34.1945 337.355 35.0297C337.355 36.1034 338.295 36.8193 339.236 36.8193H352.333C355.224 36.8528 356.363 38.8843 356.363 40.9493C356.363 43.0142 355.224 45.0792 352.333 45.0792L319.679 45.0358C318.621 45.1153 316.505 44.7495 316.505 42.6496V34.1787C316.505 34.1345 316.505 34.0905 316.505 34.0468C316.503 32.5858 316.501 31.4346 318.856 31.4346C320.024 31.4346 320.738 30.1778 320.738 29.4064V24.2761C320.738 23.5698 320.738 22.1286 318.856 22.1286H318.21C317.546 22.1286 316.431 22.0331 316.431 20.6969V16.9618C316.431 16.7808 316.427 16.4067 316.422 15.9304C316.41 14.7936 316.393 13.0742 316.408 12.0059C316.426 10.6809 317.598 10.7256 318.444 10.7578C318.566 10.7625 318.681 10.7669 318.785 10.7669ZM338.196 26.0475V19.9651C338.196 17.9614 338.621 16.1355 340.72 16.1355H347.832C349.438 16.1355 350.468 17.6223 350.544 19.9651C350.62 22.308 350.575 24.9962 350.544 26.0475H338.621H338.196Z" fill="#D8E1DF"/>
</svg>
