<svg width="24" height="24" viewBox="0 0 24 24" fill="none" xmlns="http://www.w3.org/2000/svg">
<g opacity="0.5">
<circle cx="12" cy="12" r="11.5" stroke="#AAB4B1"/>
<path d="M7.2 11.5C6.92385 11.5 6.7 11.7239 6.7 12C6.7 12.2761 6.92385 12.5 7.2 12.5V11.5ZM17.1536 12.3536C17.3488 12.1583 17.3488 11.8417 17.1536 11.6464L13.9716 8.46447C13.7763 8.2692 13.4597 8.2692 13.2645 8.46447C13.0692 8.65973 13.0692 8.97631 13.2645 9.17157L16.0929 12L13.2645 14.8284C13.0692 15.0237 13.0692 15.3403 13.2645 15.5355C13.4597 15.7308 13.7763 15.7308 13.9716 15.5355L17.1536 12.3536ZM7.2 12.5H16.8V11.5H7.2V12.5Z" fill="#AAB4B1"/>
</g>
</svg>
